<mxfile host="app.diagrams.net" agent="Mozilla/5.0 (Windows NT 10.0; Win64; x64; rv:131.0) Gecko/20100101 Firefox/131.0" version="24.7.17">
  <diagram name="Page-1" id="QqgNuvkZtLgLD-jIjSAl">
    <mxGraphModel dx="1263" dy="810" grid="1" gridSize="10" guides="1" tooltips="1" connect="1" arrows="1" fold="1" page="1" pageScale="1" pageWidth="850" pageHeight="1100" math="0" shadow="0">
      <root>
        <mxCell id="0" />
        <mxCell id="1" parent="0" />
        <mxCell id="WiKTY2bXS24eYnykBRTa-1" value="Specifications&lt;br&gt;&lt;br&gt;Input&lt;br&gt;&lt;div&gt;gender&lt;br&gt;mealCost&lt;br&gt;dayOfWeek&lt;/div&gt;&lt;div&gt;studentStatus&lt;br&gt;&lt;/div&gt;&lt;br&gt;&lt;br&gt;&lt;br&gt;&lt;br&gt;&lt;br&gt;Output&lt;br&gt;finalCost&lt;br&gt;&lt;br&gt;&lt;br&gt;&lt;br&gt;&lt;br&gt;&lt;br&gt;&lt;br&gt;Processing&lt;br&gt;if(isItWednesday == &#39;Y&#39;)&lt;br&gt;&lt;span style=&quot;white-space: pre;&quot;&gt;&#x9;&lt;/span&gt;if(gender == &#39;F&#39;)&lt;br&gt;&lt;div&gt;&lt;span style=&quot;white-space: pre;&quot;&gt;&#x9;&lt;/span&gt;&lt;span style=&quot;white-space: pre;&quot;&gt;&#x9;&lt;/span&gt;discountrate = 0.25&lt;/div&gt;&lt;div&gt;else&lt;br&gt;&lt;span style=&quot;white-space: pre;&quot;&gt;&#x9;&lt;/span&gt;discountrate = 0.20&lt;br&gt;else&lt;br&gt;&lt;span style=&quot;white-space: pre;&quot;&gt;&#x9;&lt;/span&gt;discountrate = 0&lt;br&gt;&lt;/div&gt;&lt;br&gt;&lt;br&gt;discount = mealCost * discountrate&lt;br&gt;finalCost = mealCost - discount" style="text;html=1;whiteSpace=wrap;overflow=hidden;rounded=0;" vertex="1" parent="1">
          <mxGeometry x="1" width="180" height="560" as="geometry" />
        </mxCell>
      </root>
    </mxGraphModel>
  </diagram>
</mxfile>
